<?xml version="1.0" encoding="UTF-8"?>
<svg version="1.1" xmlns="http://www.w3.org/2000/svg" width="500" height="500">
<path d="M0 0 C1.35386089 0.52162766 2.7079615 1.04263448 4.0625 1.5625 C7.08656525 3.04236172 8.68217058 4.60740188 11 7 C12.03125 7.515625 13.0625 8.03125 14.125 8.5625 C17 10 17 10 19 13 C20.99899163 12.00718233 22.99010495 11.0052131 24.96484375 9.96484375 C30.46046246 7.10276906 30.46046246 7.10276906 33.625 6.5 C36.22742954 6.12116953 36.22742954 6.12116953 38.75 4 C42.83839022 1.48406756 46.22068187 0.76832749 51 1 C54.16862114 2.19570609 56.38664071 3.50164558 59 5.625 C60.99121195 7.20657809 60.99121195 7.20657809 63.8125 7.4375 C66.78663496 7.96234735 68.12995872 8.53448756 70.625 10.0625 C73.92956914 12.33191168 73.92956914 12.33191168 78 12 C79.37701298 10.71182656 80.70644173 9.37195574 82 8 C83.65948148 6.98812105 85.32580562 5.9873454 87 5 C87.474375 4.484375 87.94875 3.96875 88.4375 3.4375 C90.68367762 1.37101659 93.09701855 0.89322506 96 0 C97.155 -0.495 98.31 -0.99 99.5 -1.5 C107.72521466 -5.025092 116.20619227 -7.15043865 124.92578125 -3.9140625 C126.60238398 -3.05464836 128.25759823 -2.15106749 129.87890625 -1.19140625 C131.89476085 0.08097592 131.89476085 0.08097592 133.96484375 0.41015625 C140.54119721 2.31616272 145.42479067 9.52859319 149 15 C149.85740437 18.16167863 150.06657054 19.85070154 150 23 C150.03480469 24.19496094 150.06960938 25.38992187 150.10546875 26.62109375 C150.24508442 32.81046908 150.28046658 38.14109378 148 44 C154.10977644 48.18278789 154.10977644 48.18278789 161 50.5 C165.17985404 51.19664234 168.06034354 53.40408593 171.60546875 55.65234375 C174.38762149 57.21815565 176.87637449 57.49150282 180 58 C183.13267291 60.52719187 184.80463726 62.03597175 185.61523914 66.03593159 C185.61063018 67.17434592 185.60602121 68.31276026 185.60127258 69.485672 C185.61158257 71.4522728 185.61158257 71.4522728 185.62210083 73.45860291 C185.60440716 74.90445522 185.58623314 76.35030172 185.56762695 77.79614258 C185.56621606 79.32395379 185.56700927 80.85176839 185.56983948 82.37957764 C185.57127345 86.52200908 185.5418873 90.6637159 185.50696969 94.80597901 C185.47570279 99.13678448 185.4727752 103.46760677 185.46684265 107.79850769 C185.45130515 115.99729774 185.41027807 124.19575424 185.3600952 132.39439744 C185.30419874 141.7292342 185.27671449 151.06408693 185.25161803 160.3990494 C185.19936204 179.59955534 185.11142168 198.79975085 185 218 C184.01 218.33 183.02 218.66 182 219 C181.731875 219.61875 181.46375 220.2375 181.1875 220.875 C179.41258805 224.05115823 177.35281942 224.69612578 174 226 C171.32156305 226.5010026 168.72169003 226.76537155 166 227 C166 227.66 166 228.32 166 229 C164.77493102 229.65357278 163.54470484 230.29748233 162.3125 230.9375 C161.62800781 231.29714844 160.94351563 231.65679687 160.23828125 232.02734375 C158 233 158 233 155.49609375 233.48046875 C152.81141674 234.03925129 151.07978082 234.95124506 148.75 236.375 C145.64807821 238.17628237 142.74267595 239.51551543 139.3125 240.5625 C135.3502856 241.77317662 132.42110052 243.64324186 129 246 C125.29576493 247.48169403 123.03100581 248 119 248 C119 248.66 119 249.32 119 250 C117.77493102 250.65357278 116.54470484 251.29748233 115.3125 251.9375 C114.62800781 252.29714844 113.94351563 252.65679687 113.23828125 253.02734375 C111 254 111 254 108.56640625 254.4453125 C105.50505333 255.10697477 103.32286516 256.35665924 100.625 257.9375 C96.45016309 260.29670314 92.63059675 261.72885579 88 263 C87.030625 263.66 86.06125 264.32 85.0625 265 C82.02284041 266.98508381 79.58389314 267.62963472 76.0703125 268.37109375 C73.71955437 269.08519197 72.03508083 270.13130838 70 271.5 C66.67364574 273.73489427 63.90203682 274.62332212 60.0078125 275.39453125 C57.61128904 276.11721829 55.92702547 277.26356598 53.875 278.6875 C51.20975801 280.43494465 50.26926268 280.98878072 47 281.125 C43.61832466 279.85687175 40.92398446 278.11540852 37.9296875 276.12109375 C35.94862999 274.81247841 35.94862999 274.81247841 33.125 274.5625 C28.89112969 273.80040334 25.99043612 271.62623988 22.38671875 269.34765625 C19.59704348 267.77247136 17.14209105 267.48876972 14 267 C12.18546257 265.82139858 10.5040809 264.51759193 8.7890625 263.19921875 C6.07676837 261.3811526 3.14046429 260.79939091 0 260 C-2.99115963 258.62406657 -5.74028353 257.16881571 -8.5 255.375 C-10.92276893 253.83761025 -10.92276893 253.83761025 -13.6875 253.6875 C-17.1497331 252.96892332 -19.03571782 251.87100869 -22 250 C-25.75243248 247.6252955 -25.75243248 247.6252955 -30 246.5 C-34.15921764 245.80679706 -37.04334045 243.66977942 -40.53515625 241.375 C-43.10890589 239.93924743 -45.12895091 239.55667669 -48 239 C-49.98358923 238.07306389 -51.94136792 237.08958509 -53.875 236.0625 C-57.25003931 234.31921164 -60.14078097 232.96076596 -63.8125 231.9375 C-66.79827058 231.05933218 -68.01380968 230.35560515 -70.375 228.5 C-73.75235885 225.88674949 -76.79699417 225.15497636 -80.984375 224.5546875 C-83.42868757 223.88202784 -84.44517586 222.97797249 -86 221 C-86 220.34 -86 219.68 -86 219 C-86.99 218.67 -87.98 218.34 -89 218 C-89.11677694 197.87692976 -89.20496052 177.75392824 -89.25906086 157.63058949 C-89.28484776 148.2870584 -89.32000752 138.94373779 -89.37719727 129.6003418 C-89.42701743 121.45707662 -89.45928748 113.31396387 -89.47044247 105.17055053 C-89.47696363 100.8581812 -89.49229992 96.54624795 -89.52865028 92.23401833 C-89.5625881 88.17510384 -89.57305762 84.11680504 -89.56553841 80.05776215 C-89.56691397 78.56821281 -89.57686029 77.07864288 -89.59602737 75.58921623 C-89.62092297 73.55485306 -89.61193846 71.52015954 -89.60127258 69.485672 C-89.60588155 68.34725766 -89.61049051 67.20884333 -89.61523914 66.03593159 C-88.80019319 62.01404223 -87.16484542 60.53061632 -84 58 C-82.09172037 57.51484416 -80.17946835 57.03684929 -78.24609375 56.6640625 C-75.45373893 55.83849673 -73.33041869 54.49567547 -70.875 52.9375 C-67.10450296 50.5464531 -64.41870764 49.67241203 -60 49 C-57.21865228 47.49766619 -54.60330665 45.79059925 -52 44 C-52.48533203 42.31970703 -52.48533203 42.31970703 -52.98046875 40.60546875 C-54.1737482 35.81441482 -54.33191037 31.2310866 -54.3125 26.3125 C-54.32861328 25.48427734 -54.34472656 24.65605469 -54.36132812 23.80273438 C-54.36746809 16.13391212 -51.63970086 12.47190939 -46.5625 6.8125 C-45.80066406 5.95269531 -45.03882813 5.09289062 -44.25390625 4.20703125 C-40.91390131 0.93648916 -37.28908521 -0.30431515 -33 -2 C-32.01 -2.53625 -31.02 -3.0725 -30 -3.625 C-19.73125785 -7.93698263 -9.55252782 -4.29152806 0 0 Z M-28 12 C-29.6396875 12.4021875 -29.6396875 12.4021875 -31.3125 12.8125 C-35.97328838 14.87191812 -38.35644679 17.57299072 -40.4375 22.1875 C-41.1716868 27.16365499 -40.71907864 31.26851721 -39 36 C-36.70800597 38.96050874 -36.70800597 38.96050874 -34 41 C-33.525625 41.515625 -33.05125 42.03125 -32.5625 42.5625 C-30.25028287 44.68973976 -27.62682511 46.28452238 -25 48 C-24.360625 48.556875 -23.72125 49.11375 -23.0625 49.6875 C-20.94270253 51.23907189 -20.94270253 51.23907189 -17.75 51.4375 C-14.45894691 51.93115796 -12.88378901 52.42985636 -10.0625 53.9375 C-3.13284931 57.5959283 2.29589686 58.3757327 10 57 C10.33 57.66 10.66 58.32 11 59 C13.68923726 59.25948781 16.30476284 59.42127314 19 59.5 C21.69523716 59.57872686 24.31076274 59.74051219 27 60 C27.33 60.66 27.66 61.32 28 62 C30.97 62 33.94 62 37 62 C37.33 61.01 37.66 60.02 38 59 C36.67267046 57.32854798 35.33773782 55.66313351 34 54 C33.31973625 52.51529736 32.67595708 51.01352935 32.0625 49.5 C30.35979528 45.44177491 28.25783672 43.00063908 25 40 C24.690625 39.34 24.38125 38.68 24.0625 38 C22.72148252 35.47573181 20.80398418 34.05357195 18.59375 32.29296875 C15.18223028 29.52528976 12.40116141 27.20348422 11 23 C9.67696283 22.6278958 8.34262065 22.29369827 7 22 C6.505 21.01 6.505 21.01 6 20 C5.360625 19.690625 4.72125 19.38125 4.0625 19.0625 C2 18 2 18 0 15 C-2.70421768 13.69354977 -5.60860988 12.98237091 -8.5 12.1875 C-9.31500977 11.96247803 -10.13001953 11.73745605 -10.96972656 11.50561523 C-17.18415924 9.92725823 -21.91518439 9.73476171 -28 12 Z M104.3125 12.125 C103.57966797 12.32609375 102.84683594 12.5271875 102.09179688 12.734375 C97.16828893 14.20831967 94.5025125 16.10831945 91 20 C90.13375 20.33 89.2675 20.66 88.375 21 C85.20623685 22.33421606 84.65473295 24.03527013 83 27 C78.81145585 31.61813842 78.81145585 31.61813842 75.875 33 C73.19529551 34.42917573 72.41620579 36.35231092 71 39 C68.22222222 43.88888889 68.22222222 43.88888889 66 45 C64.98470459 47.32671865 63.98511802 49.6603447 63 52 C62.34 52.66 61.68 53.32 61 54 C58.89767656 56.8684413 58.89767656 56.8684413 58 60 C65.12364607 60.13086028 72.09906828 59.75226458 79.1875 59.0625 C80.60579102 58.93198242 80.60579102 58.93198242 82.05273438 58.79882812 C92.34279722 57.83077343 100.95782802 55.91180975 110.53515625 51.90234375 C113 51 113 51 115.52734375 50.55078125 C122.05542255 49.09665943 127.5844176 43.81699898 132 39 C132.66 38.34 133.32 37.68 134 37 C136.62527257 33.06209115 137.19591081 29.70969577 137 25 C135.30046916 20.07424111 131.95920958 15.47299941 127.25 13.12890625 C119.16106381 9.82697722 112.55400409 9.56195851 104.3125 12.125 Z M47 16 C47 16.66 47 17.32 47 18 C45.8553125 18.185625 45.8553125 18.185625 44.6875 18.375 C41.79732864 18.88102792 41.79732864 18.88102792 39 21 C36.67612053 21.39387788 34.34206251 21.73486085 32 22 C32 26.22528092 32.25624329 27.04518508 35 30 C35.66 30 36.32 30 37 30 C36.67 30.99 36.34 31.98 36 33 C36.66 33 37.32 33 38 33 C38 33.66 38 34.32 38 35 C38.61875 35.598125 39.2375 36.19625 39.875 36.8125 C42 39 42 39 42.9375 41.5 C44.29529871 44.6948205 46.20875047 46.01674376 49 48 C49 47.34 49 46.68 49 46 C49.66 46 50.32 46 51 46 C51.31453125 45.32453125 51.6290625 44.6490625 51.953125 43.953125 C54.19564872 39.27894905 56.09441637 35.50155774 60 32 C60.5259375 30.948125 60.5259375 30.948125 61.0625 29.875 C62 28 62 28 65 26 C64.505 24.02 64.505 24.02 64 22 C63.38511719 21.87882812 62.77023437 21.75765625 62.13671875 21.6328125 C61.32847656 21.46523437 60.52023437 21.29765625 59.6875 21.125 C58.88699219 20.96257812 58.08648437 20.80015625 57.26171875 20.6328125 C55 20 55 20 52 18 C51.01 18 50.02 18 49 18 C49 17.34 49 16.68 49 16 C48.34 16 47.68 16 47 16 Z M-45 57 C-46.98674926 57.981358 -48.96226464 58.98044483 -50.9296875 60 C-54.88025894 62.03081584 -58.72844035 63.71853211 -63 65 C-58.20295269 69.09159917 -53.48937717 71.56833196 -47.5 73.4375 C-43.49055638 74.70895108 -40.48069241 76.62680063 -37 79 C-36.21109375 79.15210938 -35.4221875 79.30421875 -34.609375 79.4609375 C-31.02002961 80.20244897 -28.38759752 81.96244094 -25.28125 83.84375 C-22.80755762 85.09753929 -20.74959914 85.67255997 -18 86 C-15.24743756 85.15020525 -15.24743756 85.15020525 -13 84 C-13 83.34 -13 82.68 -13 82 C-12.030625 81.731875 -11.06125 81.46375 -10.0625 81.1875 C-0.91901759 78.84310448 -0.91901759 78.84310448 7 74 C7.99 73.34 8.98 72.68 10 72 C7.97924243 71.68701048 5.95839006 71.37463296 3.9375 71.0625 C2.15085938 70.78599609 2.15085938 70.78599609 0.328125 70.50390625 C-2.04840551 70.14407945 -4.42929127 69.81255196 -6.8125 69.5 C-10.62520622 68.90192844 -14.26828014 67.98203154 -18 67 C-18 66.34 -18 65.68 -18 65 C-19.57967807 64.32471777 -21.16391903 63.66010306 -22.75 63 C-23.63171875 62.62875 -24.5134375 62.2575 -25.421875 61.875 C-28.17753771 60.78574117 -28.17753771 60.78574117 -32 61 C-32.33 60.01 -32.66 59.02 -33 58 C-37.64794193 54.86534149 -39.93890541 54.6895003 -45 57 Z M128 59 C128 59.66 128 60.32 128 61 C125.69 61.33 123.38 61.66 121 62 C121 62.66 121 63.32 121 64 C117.92382812 64.29296875 117.92382812 64.29296875 114.84765625 64.5859375 C114.23792969 64.72257812 113.62820313 64.85921875 113 65 C112.67 65.66 112.34 66.32 112 67 C106.65045095 69.50257874 101.86813144 70.10294967 96 70 C92.63951371 70.54854997 89.32118555 71.25156382 86 72 C87.485 72.99 87.485 72.99 89 74 C89.61617187 74.41378906 90.23234375 74.82757813 90.8671875 75.25390625 C94.59602897 77.68418231 97.52108499 79.42578013 102 80 C104.33762223 80.65146849 106.67190457 81.31526605 109 82 C109 82.66 109 83.32 109 84 C111.49861537 85.63371005 112.85409186 86.00634383 115.875 85.875 C119.50839242 84.85765012 121.88085564 83.10064824 125 81 C127.32206525 80.29508733 129.65593068 79.62787571 132 79 C134.02518491 78.0520411 136.02477154 77.04808041 138 76 C142.31312361 73.7155788 146.11460753 71.71844007 151 71 C151.66 70.67 152.32 70.34 153 70 C153 69.34 153 68.68 153 68 C154.98 67.34 156.96 66.68 159 66 C156.03167661 63.47142822 153.83698475 62.57554771 150 62 C147.75 61.625 147.75 61.625 146 61 C145.505 59.515 145.505 59.515 145 58 C143.37548581 57.66430703 141.75037083 57.3315204 140.125 57 C139.22007812 56.814375 138.31515625 56.62875 137.3828125 56.4375 C133.20449519 55.67033354 131.50579438 56.60129858 128 59 Z M59 61 C59 61.33 59 61.66 59 62 C61.64 62 64.28 62 67 62 C67 61.67 67 61.34 67 61 C64.36 61 61.72 61 59 61 Z M-75 76 C-75 120.55 -75 165.1 -75 211 C-71.37 212.32 -67.74 213.64 -64 215 C-63.01 215.99 -62.02 216.98 -61 218 C-58.67841852 218.93119524 -58.67841852 218.93119524 -56.125 219.5625 C-52.64713604 220.52857332 -49.31902986 221.56175373 -46 223 C-46 223.66 -46 224.32 -46 225 C-41.69135272 226.46552629 -37.40638031 227.91739077 -33 229.0625 C-32.01 229.371875 -31.02 229.68125 -30 230 C-29.67 230.66 -29.34 231.32 -29 232 C-28.01 232 -27.02 232 -26 232 C-26 188.11 -26 144.22 -26 99 C-28.64 97.68 -31.28 96.36 -34 95 C-34.495 94.01 -34.495 94.01 -35 93 C-36.65 93 -38.3 93 -40 93 C-40 92.34 -40 91.68 -40 91 C-41.0828125 90.814375 -41.0828125 90.814375 -42.1875 90.625 C-44.95721894 90.0095069 -47.3970354 89.11555626 -50 88 C-50 87.34 -50 86.68 -50 86 C-50.73605469 85.80664062 -51.47210938 85.61328125 -52.23046875 85.4140625 C-53.20628906 85.15367187 -54.18210937 84.89328125 -55.1875 84.625 C-56.15042969 84.36976563 -57.11335938 84.11453125 -58.10546875 83.8515625 C-60.83837695 83.04754902 -63.41681539 82.20212144 -66 81 C-66.33 80.34 -66.66 79.68 -67 79 C-68.155 78.835 -69.31 78.67 -70.5 78.5 C-71.655 78.335 -72.81 78.17 -74 78 C-74.33 77.34 -74.66 76.68 -75 76 Z M28 79 C28 79.66 28 80.32 28 81 C22 83 22 83 19.6328125 83.73046875 C18.82585937 83.98441406 18.01890625 84.23835938 17.1875 84.5 C16.03314453 84.85578125 16.03314453 84.85578125 14.85546875 85.21875 C12.80658446 85.84450493 12.80658446 85.84450493 12 88 C9.67190457 88.68473395 7.33762223 89.34853151 5 90 C2.97843296 90.95564988 0.97033426 91.94274747 -1 93 C6.50027808 98.40772813 6.50027808 98.40772813 15 101.5 C19.17891088 102.19648515 22.05881139 104.40452535 25.60546875 106.6484375 C28.39341808 108.2220598 30.85379974 108.56099531 34 109 C35.68704193 110.30745749 37.35360035 111.64172029 39 113 C43.56102872 115.02712387 48.06405215 115.82265798 53 115 C56.16666667 113.25 56.16666667 113.25 59 111 C64.22131148 108.12295082 64.22131148 108.12295082 67.375 107.625 C70.08991424 106.97859185 71.56619225 106.08542511 73.875 104.5625 C77.47421738 102.20369087 80.79847519 101.03056269 85 100 C86.67632417 99.35800351 88.34750513 98.70105843 90 98 C90 97.34 90 96.68 90 96 C91.98 95.34 93.96 94.68 96 94 C96 93.34 96 92.68 96 92 C92.07561214 90.33510818 88.10899581 89.12795963 84 88 C84 87.34 84 86.68 84 86 C79.69135272 84.53447371 75.40638031 83.08260923 71 81.9375 C70.01 81.628125 69.02 81.31875 68 81 C67.505 80.01 67.505 80.01 67 79 C60.74739747 76.70114326 54.07335265 76.69259081 47.5 76.75 C46.61441406 76.74226563 45.72882813 76.73453125 44.81640625 76.7265625 C38.92611186 76.74386146 33.7067144 77.53852436 28 79 Z M163 79 C162.67 79.66 162.34 80.32 162 81 C160.1796875 81.78125 160.1796875 81.78125 157.875 82.5 C157.06933594 82.75394531 156.26367188 83.00789063 155.43359375 83.26953125 C152.29672121 84.21109652 149.156673 85.12687768 146 86 C146 86.66 146 87.32 146 88 C145.25234375 88.26554687 144.5046875 88.53109375 143.734375 88.8046875 C142.74953125 89.15789062 141.7646875 89.51109375 140.75 89.875 C139.77546875 90.22304687 138.8009375 90.57109375 137.796875 90.9296875 C132.20994074 93.06770424 127.25176481 96.08235288 122 99 C122 142.56 122 186.12 122 231 C122.99 231.33 123.98 231.66 125 232 C125.495 231.01 125.495 231.01 126 230 C127.61719752 229.49462577 129.23905237 229.0003762 130.87890625 228.57421875 C134.64014519 227.55598279 138.31211723 226.25438189 142 225 C142 224.34 142 223.68 142 223 C142.74765625 222.73445312 143.4953125 222.46890625 144.265625 222.1953125 C145.74289062 221.66550781 145.74289062 221.66550781 147.25 221.125 C148.71179688 220.60292969 148.71179688 220.60292969 150.203125 220.0703125 C153.5287477 218.797658 156.44257256 217.35732528 159.4375 215.4375 C162.04208619 213.97639067 164.09273711 213.53554843 167 213 C167.99 212.34 168.98 211.68 170 211 C170.44791188 208.5637529 170.44791188 208.5637529 170.36076355 205.67233276 C170.36694954 203.97696381 170.36694954 203.97696381 170.3732605 202.24734497 C170.36247467 201.00153656 170.35168884 199.75572815 170.34057617 198.47216797 C170.34101425 197.16489746 170.34145233 195.85762695 170.34190369 194.51074219 C170.34276654 190.91994317 170.32509427 187.32944311 170.30418181 183.73871374 C170.28546307 179.98843229 170.28366838 176.23814444 170.28010559 172.48782349 C170.27077095 165.38338075 170.2461381 158.27907605 170.21605712 151.17469418 C170.18255713 143.08775947 170.1660382 135.00081826 170.15097082 126.91383147 C170.11958968 110.27580676 170.06680177 93.63792098 170 77 C167.3104472 77 165.42670715 77.87998132 163 79 Z M-12 106 C-12.11672484 123.15878989 -12.20493469 140.31745614 -12.25906086 157.47655201 C-12.28485896 165.44356864 -12.32003971 173.41033881 -12.37719727 181.37719727 C-12.42698362 188.31992796 -12.45927934 195.2624802 -12.47044247 202.20538443 C-12.47696949 205.88279696 -12.49234186 209.5596989 -12.52865028 213.23694801 C-12.56882522 217.33894262 -12.56995254 221.44004575 -12.56762695 225.54223633 C-12.58560333 226.76574799 -12.60357971 227.98925964 -12.62210083 229.24984741 C-12.61522751 230.36463974 -12.60835419 231.47943207 -12.60127258 232.62800598 C-12.60588155 233.59865399 -12.61049051 234.56930201 -12.61523914 235.56936359 C-12.21302633 238.22242945 -12.21302633 238.22242945 -9.65773296 239.77324963 C-6.96814459 241.08048854 -6.96814459 241.08048854 -3.875 242 C-1 243 -1 243 0.375 244.5625 C2.38240792 246.33828393 3.49294418 246.30116112 6.125 246.5625 C7.40375 246.706875 8.6825 246.85125 10 247 C10.495 247.99 10.495 247.99 11 249 C11.99 249.33 12.98 249.66 14 250 C17 251 17 251 18 253 C19.155 253.165 20.31 253.33 21.5 253.5 C22.655 253.665 23.81 253.83 25 254 C25.33 254.66 25.66 255.32 26 256 C27.155 256.33 28.31 256.66 29.5 257 C30.655 257.33 31.81 257.66 33 258 C33.33 258.66 33.66 259.32 34 260 C35.97888961 260.72693904 37.97954558 261.39816251 40 262 C40.07003395 244.58040327 40.12296057 227.16085037 40.15543652 209.74114513 C40.17091544 201.65314723 40.19202445 193.56523673 40.22631836 185.47729492 C40.25618945 178.42908986 40.27556754 171.38094808 40.28226548 164.33268148 C40.28618166 160.59952259 40.29540625 156.86654477 40.31719017 153.13344383 C40.34129282 148.96933279 40.34197148 144.80553795 40.34057617 140.64135742 C40.351362 139.39914429 40.36214783 138.15693115 40.3732605 136.8770752 C40.36913651 135.74545456 40.36501251 134.61383392 40.36076355 133.44792175 C40.36491162 131.9698267 40.36491162 131.9698267 40.36914349 130.46187115 C40.1923444 127.95736639 40.1923444 127.95736639 38.63760853 126.17903614 C36.98467721 124.78932274 36.98467721 124.78932274 34.4375 124.6875 C30.88492838 123.97698568 29.02779717 122.91684603 26 121 C22.18149023 118.5892095 19.46640084 117.67966969 15 117 C12.89491555 115.79888819 10.89923768 114.47466119 8.87890625 113.13671875 C6.59944311 111.75766724 4.62890965 111.34590916 2 111 C-0.00744615 110.35610218 -2.00945124 109.69437747 -4 109 C-4 108.34 -4 107.68 -4 107 C-8.01148518 105.1786782 -8.01148518 105.1786782 -12 106 Z M98.8125 108.3125 C94.93829702 110.58204135 91.20432534 112.00845754 86.92578125 113.31640625 C84.58174529 114.1484677 82.96384328 115.49438682 81 117 C78.67328146 117.68939809 76.33932406 118.35466922 74 119 C71.98347806 119.9662501 69.98320018 120.96708324 68 122 C61.65236052 124.84549356 61.65236052 124.84549356 58.625 125.5625 C58.08875 125.706875 57.5525 125.85125 57 126 C55.70780103 128.58439794 55.87704002 130.4328216 55.87974548 133.32766724 C55.87837082 134.45791321 55.87699615 135.58815918 55.87557983 136.75265503 C55.87917511 137.99846344 55.88277039 139.24427185 55.88647461 140.52783203 C55.88632858 141.83510254 55.88618256 143.14237305 55.8860321 144.48925781 C55.8857445 148.07994761 55.89163534 151.6706042 55.89860606 155.26128626 C55.90484567 159.01158131 55.90544388 162.76187707 55.90663147 166.51217651 C55.90974299 173.61656032 55.91795397 180.72092878 55.92798096 187.82530582 C55.93914765 195.91225789 55.94465395 203.99921067 55.94967639 212.08616853 C55.96013673 228.72412134 55.97773272 245.36205871 56 262 C58.02045442 261.39816251 60.02111039 260.72693904 62 260 C62.495 259.01 62.495 259.01 63 258 C65.33333333 257.33333333 67.66666667 256.66666667 70 256 C70.495 255.01 70.495 255.01 71 254 C73.33333333 253.66666667 75.66666667 253.33333333 78 253 C78.33 252.34 78.66 251.68 79 251 C82.66676924 248.91660839 85.88149076 247.75867275 90 247 C92.30877083 245.98991276 94.31286231 244.79944724 96.4375 243.4375 C99.04208619 241.97639067 101.09273711 241.53554843 104 241 C104.99 240.34 105.98 239.68 107 239 C107.44783776 236.5805583 107.44783776 236.5805583 107.36076355 233.71029663 C107.36694954 232.0275489 107.36694954 232.0275489 107.3732605 230.31080627 C107.36247467 229.0743486 107.35168884 227.83789093 107.34057617 226.56396484 C107.34101425 225.26644791 107.34145233 223.96893097 107.34190369 222.63209534 C107.34276652 219.06815404 107.32509452 215.50451396 107.30418181 211.94064283 C107.28546281 208.21838872 107.28366836 204.49612815 107.28010559 200.77383423 C107.27077103 193.72251494 107.24613828 186.67133474 107.21605712 179.62007678 C107.18255689 171.59360056 107.16603814 163.56711779 107.15097082 155.54058909 C107.11958986 139.0269779 107.0668021 122.51350668 107 106 C102.91597076 106 102.09119439 106.28795101 98.8125 108.3125 Z " fill="#DD5751" transform="translate(202,112)"/>
<path d="M0 0 C6.43514636 4.53665491 9.19807731 10.46177905 11 18 C12.30328007 26.10183386 9.44039058 32.93268237 5.3125 39.8125 C-1.97292898 46.70412201 -9.71826861 48.34946119 -19.47265625 48.2890625 C-24.10593532 47.90936964 -27.22629527 46.62642264 -31 44 C-31.825 43.46375 -32.65 42.9275 -33.5 42.375 C-33.995 41.92125 -34.49 41.4675 -35 41 C-35 40.34 -35 39.68 -35 39 C-35.5990918 39.27972656 -36.19818359 39.55945313 -36.81542969 39.84765625 C-52.85593415 47.32400977 -68.98423153 54.5829839 -85.16439819 61.75090027 C-86.32438828 62.26479057 -86.32438828 62.26479057 -87.5078125 62.7890625 C-88.28589264 63.13371048 -89.06397278 63.47835846 -89.8656311 63.83345032 C-97.83377096 67.36519432 -105.7874473 70.92902107 -113.74072266 74.49407959 C-126.47626993 80.20101577 -139.21649796 85.89782105 -151.97503662 91.55319214 C-153.48199571 92.22176802 -154.98839255 92.89161274 -156.49420166 93.56277466 C-158.56229367 94.48419403 -160.63239583 95.40093208 -162.703125 96.31640625 C-164.46124512 97.09673218 -164.46124512 97.09673218 -166.25488281 97.89282227 C-169 99 -169 99 -171 99 C-170.99631283 99.93429211 -170.99262566 100.86858421 -170.98882675 101.8311882 C-170.90009008 124.54819116 -170.83432629 147.26517168 -170.79275131 169.98231125 C-170.77211237 180.9680878 -170.7439663 191.95374998 -170.69824219 202.93945312 C-170.65841523 212.51285224 -170.63257688 222.08616853 -170.62364602 231.65964818 C-170.61842426 236.73034366 -170.60612355 241.80080217 -170.57707977 246.87142181 C-170.54997611 251.64187187 -170.54154477 256.41198682 -170.54756927 261.18250656 C-170.54646677 262.93530726 -170.53848284 264.6881189 -170.5231781 266.44085312 C-170.50332864 268.83083589 -170.50804157 271.21954702 -170.51898193 273.60955811 C-170.50733057 274.30605933 -170.4956792 275.00256055 -170.48367476 275.72016788 C-170.52494193 279.04644729 -170.80910578 280.74817828 -172.84256363 283.43065262 C-175 285 -175 285 -178 285.5 C-181.77013904 284.87164349 -182.71096267 284.03383806 -185 281 C-185.38883449 278.3307776 -185.53272829 276.07524715 -185.49447632 273.40869141 C-185.49930515 272.64038813 -185.50413398 271.87208485 -185.50910914 271.08049965 C-185.52038856 268.50384225 -185.50305518 265.92817546 -185.48583984 263.3515625 C-185.48798551 261.50526663 -185.4918629 259.65897208 -185.49734497 257.81268311 C-185.50704783 252.7961497 -185.4917232 247.77997158 -185.47143888 242.76348114 C-185.45388618 237.51761776 -185.45739262 232.27176566 -185.4581604 227.02587891 C-185.45628666 218.21575975 -185.43891293 209.40577827 -185.41162109 200.59570312 C-185.38016954 190.40507605 -185.36962487 180.2145998 -185.3710922 170.02392769 C-185.37231238 160.22725452 -185.36210498 150.43063056 -185.34550858 140.63397217 C-185.33844162 136.46180843 -185.33478189 132.28966211 -185.33372116 128.11749268 C-185.3317139 123.20584838 -185.31951747 118.294331 -185.29938889 113.38272858 C-185.29354109 111.57834907 -185.29108771 109.77395496 -185.29224396 107.96956635 C-185.29322372 105.51001162 -185.28193061 103.05081366 -185.26742554 100.59130859 C-185.27052274 99.87419016 -185.27361995 99.15707172 -185.276811 98.41822243 C-185.24158193 94.81071473 -185.14889092 91.9798032 -183 89 C-180.61113405 87.67318466 -178.35009994 86.58214053 -175.84375 85.53125 C-175.11861206 85.21458374 -174.39347412 84.89791748 -173.6463623 84.57165527 C-171.26911807 83.53610037 -168.88463905 82.51839511 -166.5 81.5 C-164.00803085 80.41832918 -161.51815768 79.33192869 -159.02832031 78.24536133 C-157.36165672 77.51843658 -155.69433613 76.79301633 -154.02636719 76.0690918 C-147.30143373 73.14785676 -140.6415675 70.10659185 -134 67 C-122.51409662 61.65496648 -110.94747975 56.50229121 -99.36157227 51.37890625 C-90.85981902 47.61699543 -82.37524419 43.82035102 -73.91015625 39.9765625 C-72.06202315 39.13880941 -70.21387872 38.30108133 -68.36572266 37.46337891 C-65.66339778 36.23824523 -62.96202465 35.0112069 -60.2633667 33.77801514 C-57.77020779 32.63880427 -55.27409847 31.50630324 -52.77734375 30.375 C-52.03219009 30.03207916 -51.28703644 29.68915833 -50.51930237 29.33584595 C-47.5118233 27.97923093 -45.33879509 27 -42 27 C-42.0825 25.741875 -42.165 24.48375 -42.25 23.1875 C-42.21469128 15.71382049 -39.93748321 8.65157721 -34.875 3.0625 C-24.86586987 -5.79664496 -11.43484344 -6.55649726 0 0 Z M-26 15 C-28.34401918 18.80217157 -28.14885413 21.501415 -27.5390625 25.8125 C-26.51075159 29.98535587 -24.33474315 32.18432363 -20.75 34.375 C-16.94713964 35.23928645 -13.732826 35.17878716 -10 34 C-5.73287059 30.56774374 -3.33248055 27.54901752 -2.625 22.125 C-3.19441607 17.37986605 -5.55883998 14.60128892 -8.6875 11.125 C-15.55625129 7.78344532 -21.05867191 9.69711132 -26 15 Z " fill="#DD5851" transform="translate(242,38)"/>
<path d="M0 0 C7.28139073 4.53099641 12.1583561 10.96240686 14.171875 19.26171875 C14.80064411 22.96516881 15.2719148 26.14367041 13.5625 29.5625 C14.39040291 29.81787033 14.39040291 29.81787033 15.23503113 30.07839966 C20.73209675 31.83343307 25.83210218 33.97672459 30.98828125 36.5546875 C31.76463425 36.93662262 32.54098724 37.31855774 33.34086609 37.71206665 C34.99654802 38.52697236 36.65104987 39.34427951 38.30444336 40.16381836 C42.69276011 42.33817951 47.09048402 44.49333138 51.48828125 46.6484375 C52.3622757 47.07707092 53.23627014 47.50570435 54.13674927 47.94732666 C62.29914254 51.94138013 70.53487079 55.76006745 78.796875 59.54370117 C85.81356066 62.77558248 92.77141321 66.10981473 99.70703125 69.51171875 C100.5880954 69.94352448 101.46915955 70.3753302 102.37692261 70.82022095 C106.75758921 72.96911126 111.13417469 75.12586641 115.50585938 77.29296875 C117.11451092 78.08478255 118.7232317 78.87645571 120.33203125 79.66796875 C121.06001419 80.0319426 121.78799713 80.39591644 122.53804016 80.7709198 C124.52893094 81.74703439 126.53447927 82.6665075 128.5625 83.5625 C129.6868042 84.06007813 130.8111084 84.55765625 131.96948242 85.0703125 C137.2907084 85.79923766 140.62316034 83.76240531 145.28125 81.33203125 C146.67165497 80.63975182 146.67165497 80.63975182 148.09014893 79.93348694 C151.09137436 78.43383071 154.07646946 76.90465295 157.0625 75.375 C159.12287946 74.33967988 161.18440695 73.30664131 163.24707031 72.27587891 C167.26248616 70.26709421 171.27296393 68.24900399 175.27929688 66.22216797 C181.25033541 63.20724965 187.26385291 60.29377455 193.3125 57.4375 C195.02878525 56.62138688 196.74493416 55.80498696 198.4609375 54.98828125 C199.28432617 54.59721191 200.10771484 54.20614258 200.95605469 53.80322266 C205.95594552 51.42316971 210.9460902 49.02277411 215.9375 46.625 C218.04426079 45.61326034 220.15103161 44.60154156 222.2578125 43.58984375 C223.30227539 43.0882373 224.34673828 42.58663086 225.42285156 42.06982422 C228.50804482 40.58864357 231.59377276 39.10858309 234.6796875 37.62890625 C236.72397906 36.64848071 238.76824984 35.66801185 240.8125 34.6875 C242.3284375 33.96046875 242.3284375 33.96046875 243.875 33.21875 C249.65300999 30.44559483 255.42641746 27.66314529 261.1953125 24.87109375 C261.84077026 24.55885864 262.48622803 24.24662354 263.15124512 23.92492676 C266.2868283 22.40808913 269.42182583 20.89006843 272.55566406 19.36962891 C277.91096902 16.7779388 283.27314803 14.20048475 288.6640625 11.68359375 C289.51564941 11.28454834 290.36723633 10.88550293 291.24462891 10.47436523 C294.67105427 9.1263877 296.931319 8.95730317 300.5625 9.5625 C302.5 10.625 302.5 10.625 303.5625 12.5625 C304 16 304 16 303.5625 19.5625 C300.97142084 22.66446002 298.35950049 24.38950925 294.72265625 26.0859375 C293.7569873 26.54234619 292.79131836 26.99875488 291.79638672 27.46899414 C290.7498291 27.95360107 289.70327148 28.43820801 288.625 28.9375 C286.35778598 30.00590173 284.09087083 31.07493787 281.82421875 32.14453125 C280.63618652 32.70221191 279.4481543 33.25989258 278.22412109 33.83447266 C272.72046753 36.42469748 267.24932338 39.08227124 261.77548218 41.73474121 C250.60923961 47.14330594 239.4222808 52.50823079 228.2265625 57.85546875 C222.20993512 60.72947335 216.19837889 63.61399586 210.1875 66.5 C209.14166748 67.00192871 208.09583496 67.50385742 207.01831055 68.02099609 C201.88409386 70.48551498 196.75122334 72.95276525 191.62109375 75.42578125 C185.90050772 78.18199131 180.17356703 80.92473708 174.4440918 83.66241455 C172.37796839 84.65077324 170.31299067 85.6415035 168.24804688 86.63232422 C164.3929428 88.48108996 160.53372228 90.32104296 156.67208862 92.15612793 C155.15205023 92.8799692 153.6332481 93.60641284 152.11575317 94.33557129 C149.98284055 95.35978455 147.8455537 96.37428177 145.70703125 97.38671875 C144.75700226 97.84678566 144.75700226 97.84678566 143.78778076 98.31614685 C139.30566219 100.42081834 135.13853961 102.26345772 130.2019043 100.92016602 C129.43789307 100.55592529 128.67388184 100.19168457 127.88671875 99.81640625 C126.9937207 99.39955566 126.10072266 98.98270508 125.18066406 98.55322266 C124.21354492 98.08190918 123.24642578 97.6105957 122.25 97.125 C121.21456055 96.63563965 120.17912109 96.1462793 119.11230469 95.64208984 C115.58635474 93.96790892 112.07344656 92.26781036 108.5625 90.5625 C107.26327951 89.93355833 105.96396104 89.30481904 104.66455078 88.67626953 C99.11993127 85.99281166 93.57746858 83.30499515 88.04077148 80.60522461 C78.24765442 75.83411113 68.39841684 71.20219048 58.49291992 66.66796875 C51.52721138 63.46044974 44.63536389 60.13389832 37.76953125 56.71875 C36.07196915 55.87803379 34.37437802 55.03737621 32.67675781 54.19677734 C29.35444333 52.55079778 26.04192437 50.8868668 22.73339844 49.21337891 C21.2093133 48.4566939 19.68491405 47.70064115 18.16015625 46.9453125 C17.46557816 46.58771851 16.77100006 46.23012451 16.05537415 45.86169434 C13.10272059 44.41510896 11.03719798 43.52636439 7.72094727 43.77880859 C5.37824987 44.62939774 3.50266278 45.66952746 1.4375 47.0625 C-5.13748464 51.46287882 -11.70474371 51.1560041 -19.4375 50.5625 C-26.09673597 48.87348538 -31.32054632 43.89087912 -35.4375 38.5625 C-39.04135876 31.87306317 -39.68881059 24.17754873 -37.7109375 16.8828125 C-35.82378317 11.7123165 -33.74179913 8.13191879 -29.4375 4.5625 C-28.6125 3.840625 -27.7875 3.11875 -26.9375 2.375 C-19.76958648 -2.8217373 -8.16814083 -3.56339211 0 0 Z M-22.375 16.1875 C-24.31520027 20.52441824 -25.10821178 24.93512528 -23.91796875 29.59765625 C-22.14540716 33.40987774 -20.00942416 35.12045026 -16.125 36.6875 C-12.57802208 37.63258293 -11.33607873 37.5358977 -7.625 36.5625 C-3.03486998 33.68241842 -0.95982556 31.44287202 0.5 26.1875 C0.57552405 21.80710506 -0.25333653 19.34838335 -2.4375 15.5625 C-9.03389853 10.35481695 -16.00838016 10.84775433 -22.375 16.1875 Z " fill="#DD5851" transform="translate(115.4375,353.4375)"/>
<path d="M0 0 C2.20983271 0.88688102 4.36836971 1.84971921 6.52972412 2.84899902 C7.35111877 3.21599411 8.17251343 3.5829892 9.01879883 3.96110535 C11.73372708 5.1773984 14.44008398 6.41167144 17.14691162 7.64587402 C19.07031222 8.51120095 20.99431507 9.37519032 22.91888428 10.23791504 C26.94228136 12.04321215 30.96264349 13.85503488 34.980896 15.67175293 C43.5087227 19.52328861 52.06519537 23.31004163 60.61978149 27.10165405 C65.2828779 29.16984269 69.94331948 31.24399502 74.60394287 33.31774902 C82.45429528 36.81006002 90.30600519 40.29930162 98.15863037 43.78649902 C101.16696301 45.12266492 104.17528002 46.45886599 107.18359375 47.79507446 C109.07476018 48.63497169 110.96599236 49.47472089 112.8572998 50.31430054 C117.20186429 52.2429936 121.5451847 54.17435075 125.88568115 56.11218262 C129.48298149 57.71687304 133.08944688 59.29889177 136.70111084 60.87097168 C138.53594555 61.67736643 140.3707449 62.48384162 142.20550537 63.29040527 C143.06201187 63.65864914 143.91851837 64.02689301 144.80097961 64.40629578 C145.58859177 64.75452896 146.37620392 65.10276215 147.18768311 65.46154785 C147.88183823 65.76361649 148.57599335 66.06568512 149.29118347 66.37690735 C151.02191162 67.39587402 151.02191162 67.39587402 153.02191162 70.39587402 C153.26800728 72.85774517 153.26800728 72.85774517 153.26242065 75.84379578 C153.26654465 77.54122673 153.26654465 77.54122673 153.27075195 79.27294922 C153.25996613 81.13626892 153.25996613 81.13626892 153.2489624 83.03723145 C153.24925446 84.34464798 153.24954651 85.65206451 153.24984741 86.99909973 C153.25042192 90.58563938 153.23865183 94.17204561 153.2246995 97.75855422 C153.21220843 101.50616898 153.21102292 105.2537867 153.20864868 109.00141907 C153.20242913 116.09870855 153.1860119 123.19593651 153.1659497 130.29319888 C153.14360547 138.3729126 153.13260099 146.45262924 153.12255883 154.53236616 C153.10164608 171.15357147 153.06646089 187.7747149 153.02191162 204.39587402 C153.95688477 204.52333008 154.89185791 204.65078613 155.85516357 204.78210449 C161.57448514 205.89060611 165.17280723 210.23394489 169.02191162 214.39587402 C172.6900772 220.39832678 173.86372029 227.95028941 172.54925537 234.89196777 C170.07592585 242.90663664 165.73744904 249.25546885 158.24456787 253.37243652 C150.95537607 256.56238958 143.22170508 256.46004892 135.77191162 253.83337402 C128.98844869 250.7431298 124.67465585 246.42933696 121.58441162 239.64587402 C118.78263498 231.54641491 118.97902056 224.91451847 122.52191162 217.08337402 C125.38943675 211.86352922 128.6142457 208.03198092 134.02191162 205.39587402 C135.67191162 205.06587402 137.32191162 204.73587402 139.02191162 204.39587402 C139.02191162 162.48587402 139.02191162 120.57587402 139.02191162 77.39587402 C136.05191162 76.40587402 133.08191162 75.41587402 130.02191162 74.39587402 C128.53060658 73.80515646 127.0473432 73.1924191 125.58343506 72.53674316 C124.44820404 72.03208275 124.44820404 72.03208275 123.29003906 71.51722717 C122.49515076 71.1587822 121.70026245 70.80033722 120.88128662 70.43103027 C120.01823914 70.04603867 119.15519165 69.66104706 118.26599121 69.26438904 C115.43288708 67.99958005 112.60243539 66.72894573 109.77191162 65.45837402 C107.76234584 64.56014034 105.7525764 63.66236215 103.74261475 62.76501465 C99.56994946 60.90170463 95.39816446 59.03644406 91.22698975 57.1697998 C82.58754217 53.30532371 73.93747634 49.46479553 65.28744507 45.62408447 C62.52180738 44.39582773 59.75653355 43.16675575 56.99139404 41.93737793 C48.19061623 38.02456802 39.38878453 34.11416371 30.584198 30.20993042 C26.42021834 28.36335775 22.25669187 26.51576454 18.09320068 24.66809082 C16.10563447 23.78639458 14.11784558 22.90520012 12.12982178 22.02453613 C9.37584097 20.80452779 6.62262766 19.58280274 3.86956787 18.36071777 C2.65400963 17.82305031 2.65400963 17.82305031 1.41389465 17.27452087 C-0.72167916 16.32544798 -2.85023558 15.36209609 -4.97808838 14.39587402 C-6.11963379 13.88999756 -7.2611792 13.38412109 -8.43731689 12.86291504 C-10.97808838 11.39587402 -10.97808838 11.39587402 -12.47808838 7.95837402 C-12.97808838 4.39587402 -12.97808838 4.39587402 -12.22808838 2.02087402 C-9.25731482 -1.8411316 -4.33846447 -1.32500606 0 0 Z M138.02191162 219.39587402 C134.91396839 222.736913 134.1123346 224.82620926 133.39691162 229.33337402 C133.5961432 233.65005822 135.62920583 235.98911595 138.51409912 239.04821777 C141.66293607 241.86259276 144.63135238 241.78672484 148.69769287 241.74743652 C152.67470464 241.14587172 154.30544327 239.31110835 157.02191162 236.39587402 C159.33396735 233.13797732 159.49440519 230.33332045 159.02191162 226.39587402 C156.41390232 221.64557137 153.8486373 218.49515623 148.77191162 216.52087402 C144.70469323 216.33600046 141.54486941 217.38065391 138.02191162 219.39587402 Z " fill="#DD5851" transform="translate(287.97808837890625,67.6041259765625)"/>
<path d="M0 0 C2.97 0 5.94 0 9 0 C9 0.33 9 0.66 9 1 C6.03 1 3.06 1 0 1 C0 0.67 0 0.34 0 0 Z " fill="#E74646" transform="translate(230,172)"/>
<path d="M0 0 C2 1 2 1 2 1 Z " fill="#FF4646" transform="translate(366,324)"/>
<path d="M0 0 C2 1 2 1 2 1 Z " fill="#FF2A2A" transform="translate(261,238)"/>
<path d="M0 0 C2 1 2 1 2 1 Z " fill="#FF4040" transform="translate(293,168)"/>
<path d="M0 0 C2 1 2 1 2 1 Z " fill="#FF3F3F" transform="translate(205,168)"/>
<path d="" fill="#FF0000" transform="translate(0,0)"/>
<path d="" fill="#FF0000" transform="translate(0,0)"/>
<path d="" fill="#FF7A7A" transform="translate(0,0)"/>
<path d="" fill="#FF8080" transform="translate(0,0)"/>
<path d="" fill="#FF0000" transform="translate(0,0)"/>
<path d="" fill="#FF0000" transform="translate(0,0)"/>
<path d="" fill="#FF0000" transform="translate(0,0)"/>
<path d="" fill="#FF8080" transform="translate(0,0)"/>
<path d="" fill="#FF0000" transform="translate(0,0)"/>
<path d="" fill="#FF6363" transform="translate(0,0)"/>
<path d="" fill="#FF0000" transform="translate(0,0)"/>
<path d="" fill="#FF4141" transform="translate(0,0)"/>
<path d="" fill="#FF5151" transform="translate(0,0)"/>
<path d="" fill="#FF5555" transform="translate(0,0)"/>
<path d="" fill="#FF4A4A" transform="translate(0,0)"/>
<path d="" fill="#FF4F4F" transform="translate(0,0)"/>
<path d="" fill="#FF5A5A" transform="translate(0,0)"/>
<path d="" fill="#FF4C4C" transform="translate(0,0)"/>
<path d="" fill="#FF8080" transform="translate(0,0)"/>
<path d="" fill="#FF8080" transform="translate(0,0)"/>
<path d="" fill="#FF4D4D" transform="translate(0,0)"/>
<path d="" fill="#FF5B5B" transform="translate(0,0)"/>
<path d="" fill="#FF4F4F" transform="translate(0,0)"/>
<path d="" fill="#FF4A4A" transform="translate(0,0)"/>
<path d="" fill="#FF4A4A" transform="translate(0,0)"/>
<path d="" fill="#FF5555" transform="translate(0,0)"/>
<path d="" fill="#FF0000" transform="translate(0,0)"/>
<path d="" fill="#FF0000" transform="translate(0,0)"/>
<path d="" fill="#FF5555" transform="translate(0,0)"/>
<path d="" fill="#FF5555" transform="translate(0,0)"/>
<path d="" fill="#BF4040" transform="translate(0,0)"/>
<path d="" fill="#BF4040" transform="translate(0,0)"/>
<path d="" fill="#FF4D4D" transform="translate(0,0)"/>
<path d="" fill="#FF8080" transform="translate(0,0)"/>
<path d="" fill="#FF8080" transform="translate(0,0)"/>
<path d="" fill="#FF0000" transform="translate(0,0)"/>
<path d="" fill="#FF0000" transform="translate(0,0)"/>
<path d="" fill="#FF8080" transform="translate(0,0)"/>
<path d="" fill="#FF8080" transform="translate(0,0)"/>
<path d="" fill="#FF8080" transform="translate(0,0)"/>
<path d="" fill="#FF0000" transform="translate(0,0)"/>
<path d="" fill="#FF0000" transform="translate(0,0)"/>
<path d="" fill="#FF0000" transform="translate(0,0)"/>
<path d="" fill="#FF0000" transform="translate(0,0)"/>
<path d="" fill="#FF0000" transform="translate(0,0)"/>
<path d="" fill="#FF0000" transform="translate(0,0)"/>
<path d="" fill="#FF0000" transform="translate(0,0)"/>
</svg>
