<?xml version="1.0" encoding="UTF-8"?>
<svg version="1.1" xmlns="http://www.w3.org/2000/svg" width="500" height="500">
<path d="M0 0 C5.31918638 0.59644613 9.6085872 2.37766386 14.42578125 4.5625 C15.60807564 5.08952515 15.60807564 5.08952515 16.81425476 5.62719727 C18.4704851 6.3670191 20.1252342 7.11016496 21.77856445 7.85644531 C24.31857213 9.00274033 26.86291229 10.13892859 29.40820312 11.2734375 C31.01848914 11.99421114 32.62852431 12.71554552 34.23828125 13.4375 C35.00175369 13.77918213 35.76522614 14.12086426 36.55183411 14.47290039 C41.88278486 16.88278486 41.88278486 16.88278486 43 18 C43.11063295 20.5449387 43.16160498 23.06732964 43.17578125 25.61328125 C43.19898437 27.18686226 43.2231019 28.76043001 43.24804688 30.33398438 C43.28314619 32.82259929 43.31249044 35.31072842 43.32592773 37.79956055 C43.34141276 40.19640488 43.38162985 42.59181589 43.42578125 44.98828125 C43.42387283 45.73008133 43.42196442 46.47188141 43.41999817 47.23616028 C43.50344653 50.76415305 43.63292206 52.58366303 46.00854492 55.27807617 C46.6657251 55.84631104 47.32290527 56.4145459 48 57 C48.42213381 60.43737531 48.60856522 62.82090489 47 65.9375 C43.75978228 67.65886567 40.58042244 67.52960415 37 67 C35 65.9375 35 65.9375 34 64 C33.5625 60.5625 33.5625 60.5625 34 57 C34.6609668 56.41895508 35.32193359 55.83791016 36.00292969 55.23925781 C38.84627791 52.05109279 38.45754419 49.82528425 38.390625 45.609375 C38.38213531 44.55245453 38.38213531 44.55245453 38.37347412 43.47418213 C38.35115078 41.23208572 38.30096754 38.99161012 38.25 36.75 C38.22992952 35.22658565 38.2116797 33.70314614 38.1953125 32.1796875 C38.15470593 28.45200414 38.0764243 24.72780758 38 21 C31.07 18.03 24.14 15.06 17 12 C17.99 12.99 18.98 13.98 20 15 C20.39500857 18.04946616 20.13430156 20.91106412 20 24 C22.97 24.99 25.94 25.98 29 27 C29 41.19 29 55.38 29 70 C24.21567323 72.73390101 20.01007895 74.92686388 15 77 C13.53977053 77.64153464 12.08153549 78.28762219 10.625 78.9375 C9.48998047 79.44023437 9.48998047 79.44023437 8.33203125 79.953125 C6.76083291 80.65845357 5.19574483 81.37753466 3.63671875 82.109375 C2.86972656 82.46515625 2.10273438 82.8209375 1.3125 83.1875 C0.62800781 83.51105469 -0.05648437 83.83460938 -0.76171875 84.16796875 C-6.04813528 86.13307647 -9.41699282 86.23451326 -14.65985107 83.90325928 C-15.34444397 83.57940247 -16.02903687 83.25554565 -16.734375 82.921875 C-17.45361145 82.5946344 -18.1728479 82.2673938 -18.91387939 81.93023682 C-20.42660069 81.23801772 -21.93590628 80.53829072 -23.44189453 79.83154297 C-25.7487401 78.75059037 -28.06629363 77.69596621 -30.38671875 76.64453125 C-31.85747122 75.96766564 -33.32754827 75.28933005 -34.796875 74.609375 C-35.48956482 74.29361511 -36.18225464 73.97785522 -36.89593506 73.65252686 C-40.26534545 72.058585 -41.88641531 71.17037704 -44 68 C-44.19635331 65.06136892 -44.27998972 62.21980035 -44.265625 59.28125 C-44.26753845 58.42696411 -44.2694519 57.57267822 -44.27142334 56.69250488 C-44.27278387 54.88695989 -44.26909664 53.08140508 -44.26074219 51.27587891 C-44.25004071 48.5105189 -44.26064184 45.74580853 -44.2734375 42.98046875 C-44.27211588 41.22656106 -44.26955344 39.47265378 -44.265625 37.71875 C-44.26967346 36.89056763 -44.27372192 36.06238525 -44.27789307 35.20910645 C-44.24589123 31.2958845 -44.2193324 29.32899859 -42 26 C-39.69855891 24.92863949 -37.3659787 23.92010283 -35 23 C-34.97873047 22.09507812 -34.97873047 22.09507812 -34.95703125 21.171875 C-34.71352985 17.09158128 -34.55278638 14.68679519 -31.9375 11.4375 C-28.21221596 9.61448866 -25.07569845 9.14317703 -21 10 C-20.21625 10.51175781 -19.4325 11.02351562 -18.625 11.55078125 C-15.35986481 13.35340797 -13.65554701 13.11924488 -10 12.625 C-4.43348361 11.90078486 -4.43348361 11.90078486 -1.45703125 12.58203125 C1.71301853 13.1212925 3.39504223 12.34618142 6.3125 11.0625 C7.859375 10.381875 9.40625 9.70125 11 9 C7.04 7.02 3.08 5.04 -1 3 C-0.67 2.01 -0.34 1.02 0 0 Z M-30 17 C-30.04510361 19.37897003 -30.04510361 19.37897003 -29 22 C-23.40137831 26.38153002 -17.96361789 26.74815125 -11 27 C-13.77603494 21.88625143 -17.15757888 18.22828075 -22 15 C-25.75698557 14.62430144 -26.75366476 14.8357765 -30 17 Z M1 20 C1 20.66 1 21.32 1 22 C0.34 22 -0.32 22 -1 22 C-2.6446674 24.46326712 -2.6446674 24.46326712 -4 27 C5.87918115 26.88847548 5.87918115 26.88847548 14 22 C15.14091482 19.47326954 15.14091482 19.47326954 15 17 C13.19934538 14.82954525 13.19934538 14.82954525 10.8125 14.5625 C6.82032129 15.18350558 3.91352319 17.22921426 1 20 Z M-9 17 C-9 18.32 -9 19.64 -9 21 C-8.34 21.66 -7.68 22.32 -7 23 C-5.45833358 21.62514468 -5.45833358 21.62514468 -4 20 C-4 19.34 -4 18.68 -4 18 C-5.65 17.67 -7.3 17.34 -9 17 Z M-34 28 C-33.34653856 31.09400187 -33.34653856 31.09400187 -31.07421875 32.0546875 C-28.70308587 32.86964315 -26.47690306 33.59728674 -24 34 C-21.41982705 32.88435062 -21.41982705 32.88435062 -20 31 C-21.43429001 30.32645501 -22.87257057 29.66140299 -24.3125 29 C-25.51326172 28.443125 -25.51326172 28.443125 -26.73828125 27.875 C-29.58181328 26.77491162 -31.245619 26.6228095 -34 28 Z M10.375 29 C9.14910156 29.556875 9.14910156 29.556875 7.8984375 30.125 C7.27195313 30.41375 6.64546875 30.7025 6 31 C7.66419754 32.72873599 7.66419754 32.72873599 10 34 C12.65624389 33.49426642 12.65624389 33.49426642 15.25 32.1875 C16.14203125 31.78917969 17.0340625 31.39085937 17.953125 30.98046875 C18.62859375 30.65691406 19.3040625 30.33335937 20 30 C18.62514468 28.45833358 18.62514468 28.45833358 17 27 C14.39473112 27 12.73963271 27.91902505 10.375 29 Z M-18 36 C-14.23223709 39.07002904 -11.10711229 41.13742037 -6.125 40.8125 C-2.51808399 39.87470184 0.61608857 38.55659926 4 37 C2.49256959 33.98513919 0.12753683 33.67840369 -2.953125 32.61328125 C-8.97232527 30.80981857 -12.76792159 33.09184724 -18 36 Z M-39 33 C-39 44.22 -39 55.44 -39 67 C-35.04 68.65 -31.08 70.3 -27 72 C-27 60.78 -27 49.56 -27 38 C-32.92444454 35.30519348 -32.92444454 35.30519348 -39 33 Z M13 38 C13 49.22 13 60.44 13 72 C18.53903701 69.58271878 18.53903701 69.58271878 24 67 C24 55.78 24 44.56 24 33 C19.97231801 33 16.60246829 36.19876586 13 38 Z M-22 40 C-22 51.22 -22 62.44 -22 74 C-16.22874109 77.46896279 -16.22874109 77.46896279 -10 79 C-9.87640057 74.35532361 -9.78566601 69.71160374 -9.7253418 65.06567383 C-9.7001967 63.48542611 -9.66607526 61.90529471 -9.62280273 60.32543945 C-9.56214292 58.05390768 -9.53379322 55.78391256 -9.51171875 53.51171875 C-9.48591232 52.80536789 -9.4601059 52.09901703 -9.43351746 51.3712616 C-9.37664167 49.12924683 -9.37664167 49.12924683 -10 46 C-12.07044474 44.05452684 -12.07044474 44.05452684 -15 43 C-17.31 42.01 -19.62 41.02 -22 40 Z M-5 46 C-5 56.89 -5 67.78 -5 79 C1.98976175 77.23547979 1.98976175 77.23547979 8 74 C8 62.78 8 51.56 8 40 C3.22739298 40 -0.73125051 43.86562525 -5 46 Z M39 58 C38.67 58.99 38.34 59.98 38 61 C38.33 61.66 38.66 62.32 39 63 C40.65 62.67 42.3 62.34 44 62 C43.67 60.68 43.34 59.36 43 58 C41.68 58 40.36 58 39 58 Z " fill="#D9554E" transform="translate(148,202)"/>
<path d="M0 0 C12 0 12 0 14.73583984 1.80078125 C15.58976318 3.04408203 15.58976318 3.04408203 16.4609375 4.3125 C17.11707031 5.22386719 17.77320313 6.13523438 18.44921875 7.07421875 C19.08472656 8.03972656 19.72023437 9.00523437 20.375 10 C21.03371094 10.93457031 21.69242188 11.86914062 22.37109375 12.83203125 C23.61250651 14.59666371 24.83793551 16.37274839 26.04052734 18.1640625 C28.58815463 21.85123401 31.31097976 25.41463968 34 29 C34.33 19.43 34.66 9.86 35 0 C38.96 0 42.92 0 47 0 C47 17.49 47 34.98 47 53 C36 53 36 53 32.1796875 49.484375 C31.04191796 47.93215113 29.94077338 46.35251226 28.875 44.75 C28.33230469 43.99203125 27.78960937 43.2340625 27.23046875 42.453125 C25.46518104 39.98419114 23.7333535 37.49145755 22 35 C19.03 31.04 16.06 27.08 13 23 C12.67 32.9 12.34 42.8 12 53 C8.04 53 4.08 53 0 53 C0 35.51 0 18.02 0 0 Z " fill="#DD5851" transform="translate(227,224)"/>
<path d="M0 0 C13.53 0 27.06 0 41 0 C41 3.96 41 7.92 41 12 C31.76 12 22.52 12 13 12 C13 15.3 13 18.6 13 22 C20.92 22 28.84 22 37 22 C37 25.63 37 29.26 37 33 C29.08 33 21.16 33 13 33 C13 39.6 13 46.2 13 53 C8.71 53 4.42 53 0 53 C0 35.51 0 18.02 0 0 Z " fill="#DD5851" transform="translate(311,224)"/>
<path d="M0 0 C14.85 0 29.7 0 45 0 C45 3.96 45 7.92 45 12 C39.72 12 34.44 12 29 12 C29 25.53 29 39.06 29 53 C24.71 53 20.42 53 16 53 C16 39.47 16 25.94 16 12 C10.72 12 5.44 12 0 12 C0 8.04 0 4.08 0 0 Z " fill="#DD5851" transform="translate(356,224)"/>
<path d="M0 0 C3.96 0 7.92 0 12 0 C12 17.49 12 34.98 12 53 C8.04 53 4.08 53 0 53 C0 35.51 0 18.02 0 0 Z " fill="#DD5851" transform="translate(287,224)"/>
<path d="M0 0 C2.44706902 1.74790644 2.93412462 2.74248716 3.6875 5.6875 C3.790625 6.450625 3.89375 7.21375 4 8 C4.877771 8.27561768 5.75554199 8.55123535 6.65991211 8.83520508 C9.74612855 9.91146695 12.53047056 11.16002126 15.44140625 12.63671875 C16.43720703 13.13107422 17.43300781 13.62542969 18.45898438 14.13476562 C20.53582296 15.17383842 22.6087391 16.22078676 24.67773438 17.27539062 C25.67224609 17.76587891 26.66675781 18.25636719 27.69140625 18.76171875 C28.59060791 19.21506592 29.48980957 19.66841309 30.41625977 20.13549805 C35.14801078 21.71870983 38.6949207 19.84024063 42.9921875 17.7421875 C43.93803711 17.28432861 44.88388672 16.82646973 45.85839844 16.35473633 C46.85387695 15.86642334 47.84935547 15.37811035 48.875 14.875 C50.93992515 13.875932 53.00502969 12.87723469 55.0703125 11.87890625 C56.07868164 11.38922363 57.08705078 10.89954102 58.12597656 10.39501953 C61.99309293 8.51796356 65.86568342 6.65368379 69.75 4.8125 C71.47476563 3.98685547 71.47476563 3.98685547 73.234375 3.14453125 C76 2 76 2 79 2 C79.495 3.485 79.495 3.485 80 5 C73.15449834 9.52700048 65.96967127 13.04702658 58.5625 16.5625 C57.38623047 17.12646484 56.20996094 17.69042969 54.99804688 18.27148438 C52.71083704 19.36458913 50.42009406 20.45033902 48.12548828 21.52783203 C46.1828658 22.44284637 44.24737112 23.37336214 42.32373047 24.32763672 C41.54529785 24.70291504 40.76686523 25.07819336 39.96484375 25.46484375 C39.30991943 25.78960693 38.65499512 26.11437012 37.98022461 26.44897461 C33.18381281 27.78364375 29.12584181 25.20831353 24.95703125 23.0234375 C23.80009766 22.435625 22.64316406 21.8478125 21.45117188 21.2421875 C19.63307729 20.31369469 17.81971327 19.37881781 16.01538086 18.42382812 C6.48457428 13.38559247 6.48457428 13.38559247 -3.98681641 13.75244141 C-6 14 -6 14 -9.1875 12 C-11 9 -11 9 -11.125 5.375 C-10 2 -10 2 -7.75 0 C-4.5613946 -1.15949287 -3.16439447 -1.16582954 0 0 Z M-5 4 C-5.33 5.32 -5.66 6.64 -6 8 C-4.68 8.33 -3.36 8.66 -2 9 C-1.67 7.68 -1.34 6.36 -1 5 C-2.32 4.67 -3.64 4.34 -5 4 Z " fill="#DD5851" transform="translate(106,277)"/>
<path d="M0 0 C3.5 0.875 3.5 0.875 5.5 2.5 C6.94116288 5.92276185 6.35557966 8.32105372 5.5 11.875 C3.5 13.875 3.5 13.875 1.625 14.10546875 C0.92375 14.09128906 0.2225 14.07710937 -0.5 14.0625 C-1.20125 14.05605469 -1.9025 14.04960937 -2.625 14.04296875 C-4.5 13.875 -4.5 13.875 -6.5 12.875 C-9.10520929 13.85807992 -11.60177676 14.90828942 -14.1328125 16.05859375 C-14.79917725 16.35447388 -15.46554199 16.650354 -16.15209961 16.9552002 C-18.64690413 18.06571837 -21.13558747 19.18994688 -23.625 20.3125 C-29.19375 22.808125 -34.7625 25.30375 -40.5 27.875 C-40.83 43.715 -41.16 59.555 -41.5 75.875 C-42.82 75.875 -44.14 75.875 -45.5 75.875 C-45.5 59.045 -45.5 42.215 -45.5 24.875 C-35.72638444 19.98819222 -26.19111875 15.25370592 -16.09179688 11.2109375 C-10.97725737 9.05164919 -10.97725737 9.05164919 -7.61328125 4.7265625 C-7.24589844 3.78554687 -6.87851563 2.84453125 -6.5 1.875 C-3.5 -0.125 -3.5 -0.125 0 0 Z M-3.5 4.875 C-3.17 6.525 -2.84 8.175 -2.5 9.875 C-1.18 9.875 0.14 9.875 1.5 9.875 C1.83 8.885 2.16 7.895 2.5 6.875 C1.84 5.885 1.18 4.895 0.5 3.875 C-1.5745356 3.7259288 -1.5745356 3.7259288 -3.5 4.875 Z " fill="#DD5851" transform="translate(135.5,193.125)"/>
</svg>
